# xmcd
#
# Track frame offsets:
#	150
#	9633
#	23502
#	46783
#	73017
#	87798
#	104059
#	117374
#	128773
#	144938
#	163400
#	177738
#
# Disc length: 2518 seconds
# Revision: 0
# Processed by: cddbd v1.5.2PL0 Copyright (c) Steve Scherf et al.
# Submitted via: dBpowerAMP V12.0
#
DISCID=a209d40c
DTITLE=Dave Riley And Bob Corritore - Hush Your Fuss!
DYEAR=2013
DGENRE=Blues
TTITLE0=Hush my Fuss
TTITLE1=Baby Please Come Home
TTITLE2=No Cussin'
TTITLE3=Snuff Dippin' Woman
TTITLE4=Mississippi Po Boy
TTITLE5=Home in Chicago
TTITLE6=Hard Headed Woman
TTITLE7=Happy as a Man Can be
TTITLE8=Go Ahead And Blame me
TTITLE9=My Baby's Gone
TTITLE10=Oil Spill Blues
TTITLE11=Laughing Blues
EXTD=
EXTT0=
EXTT1=
EXTT2=
EXTT3=
EXTT4=
EXTT5=
EXTT6=
EXTT7=
EXTT8=
EXTT9=
EXTT10=
EXTT11=
PLAYORDER=
